HIERARCHY
ROOT Hips
{
  OFFSET 49.562 94.0745 13.1484
  CHANNELS 6 Xposition Yposition Zposition Zrotation Xrotation Yrotation
  JOINT spine
  {
    OFFSET 0 7.80059 0.448573
    CHANNELS 3 Zrotation Xrotation Yrotation
    JOINT spine1
    {
      OFFSET 0 10.1364 0
      CHANNELS 3 Zrotation Xrotation Yrotation
      JOINT spine2
      {
        OFFSET 0 9.71251 0
        CHANNELS 3 Zrotation Xrotation Yrotation
        JOINT Neck
        {
          OFFSET 0 24.9361 1.18887
          CHANNELS 3 Zrotation Xrotation Yrotation
          JOINT Head
          {
            OFFSET 0 7.53384 0
            CHANNELS 3 Zrotation Xrotation Yrotation
            End Site
            {
              OFFSET 0 18.2361 -6.01402
            }
          }
        }
        JOINT RightShoulder
        {
          OFFSET -4.08965 10.4888 -0.569457
          CHANNELS 3 Zrotation Xrotation Yrotation
          JOINT RightArm
          {
            OFFSET 0 13.757 0
            CHANNELS 3 Zrotation Xrotation Yrotation
            JOINT RightArmRoll
            {
              OFFSET 0 6.94478 0
              CHANNELS 3 Zrotation Xrotation Yrotation
              JOINT RightForeArm
              {
                OFFSET 0 20.2277 0
                CHANNELS 3 Zrotation Xrotation Yrotation
                JOINT RightForeArmRoll
                {
                  OFFSET 0 7.79312 0
                  CHANNELS 3 Zrotation Xrotation Yrotation
                  JOINT RightHand
                  {
                    OFFSET 0 15.6391 0
                    CHANNELS 3 Zrotation Xrotation Yrotation
                    End Site
                    {
                      OFFSET 0 0 0
                    }
                  }
                }
              }
            }
          }
        }
        JOINT LeftShoulder
        {
          OFFSET 4.08965 10.4888 -0.569457
          CHANNELS 3 Zrotation Xrotation Yrotation
          JOINT LeftArm
          {
            OFFSET 0 13.757 0
            CHANNELS 3 Zrotation Xrotation Yrotation
            JOINT LeftArmRoll
            {
              OFFSET 0 6.94478 0
              CHANNELS 3 Zrotation Xrotation Yrotation
              JOINT LeftForeArm
              {
                OFFSET 0 20.2277 0
                CHANNELS 3 Zrotation Xrotation Yrotation
                JOINT LeftForeArmRoll
                {
                  OFFSET 0 7.79312 0
                  CHANNELS 3 Zrotation Xrotation Yrotation
                  JOINT LeftHand
                  {
                    OFFSET 0 15.6391 0
                    CHANNELS 3 Zrotation Xrotation Yrotation
                    End Site
                    {
                      OFFSET 0 0 0
                    }
                  }
                }
              }
            }
          }
        }
      }
    }
  }
  JOINT RightUpLeg
  {
    OFFSET -6.91416 -1.26788 -1.06358
    CHANNELS 3 Zrotation Xrotation Yrotation
    JOINT RightUpLegRoll
    {
      OFFSET 0 18.3378 0
      CHANNELS 3 Zrotation Xrotation Yrotation
      JOINT RightLeg
      {
        OFFSET 0 -22.7085 0
        CHANNELS 3 Zrotation Xrotation Yrotation
        JOINT RightLegRoll
        {
          OFFSET 0 22.7828 0
          CHANNELS 3 Zrotation Xrotation Yrotation
          JOINT RightFoot
          {
            OFFSET 0 18.9629 0
            CHANNELS 3 Zrotation Xrotation Yrotation
            JOINT RightToeBase
            {
              OFFSET 0 15.852 0
              CHANNELS 3 Zrotation Xrotation Yrotation
              End Site
              {
                OFFSET 0.00671906 7.67701 -0.884892
              }
            }
          }
        }
      }
    }
  }
  JOINT LeftUpLeg
  {
    OFFSET 6.91416 -1.26788 -1.06358
    CHANNELS 3 Zrotation Xrotation Yrotation
    JOINT LeftUpLegRoll
    {
      OFFSET 0 18.3379 0
      CHANNELS 3 Zrotation Xrotation Yrotation
      JOINT LeftLeg
      {
        OFFSET 0 22.7084 0
        CHANNELS 3 Zrotation Xrotation Yrotation
        JOINT LeftLegRoll
        {
          OFFSET 0 22.9934 0
          CHANNELS 3 Zrotation Xrotation Yrotation
          JOINT LeftFoot
          {
            OFFSET 0 18.7522 0
            CHANNELS 3 Zrotation Xrotation Yrotation
            JOINT LeftToeBase
            {
              OFFSET 0 15.852 0
              CHANNELS 3 Zrotation Xrotation Yrotation
              End Site
              {
                OFFSET -0.030112 7.67701 -0.884893
              }
            }
          }
        }
      }
    }
  }
}
MOTION
Frames: 9
Frame Time: 0.00208333
49.5741 94.1604 14.7942 0.884902 -8.02956 3.34258 -0.610511 -1.41202 0.237569 -1.23861 1.18159 0.53242 -1.24584 2.82641 0.553444 3.72361 13.7482 -3.82895 15.678 -8.8923 0.00373842 27.4676 -13.5152 -9.98138 15.1528 54.4582 44.8271 -3.57106e-006 4.2478e-007 -1.84169e-006 -29.9393 87.2326 26.6777 2.33507e-006 -5.6766e-006 -3.00656 8.02894 -4.95148 0.697701 -67.0013 -0.644457 1.32857 -103.573 0.957094 -13.4379 1.45682e-006 5.58275e-007 1.66602e-006 -5.7943 18.9412 2.23406 6.89473e-006 4.13905e-006 3 -8.02941 -4.95144 -0.697658 178.614 -5.63874 0.458284 180 7.01527e-015 178.838 178.703 10.9542 179.564 -5.95111e-008 -3.5271e-006 0.253337 -21.4984 71.7185 23.177 8.13662 25.2345 -3.48522 -179.989 -5.18556 5.46054 4.54188e-006 -4.6773e-006 -1.40133 -6.02628 -10.9214 -0.407585 -8.91502e-007 -2.57141e-006 -0.166691 24.1033 71.2934 -22.9847 -8.13649 25.2327 3.48774 
49.5736 94.1577 14.788 0.878874 -8.01689 3.34004 -0.609716 -1.41236 0.238581 -1.23728 1.18165 0.53344 -1.24453 2.82647 0.554442 3.71012 13.6729 -3.82037 15.6718 -8.8371 -0.00264937 27.4908 -13.5193 -9.98461 15.1134 54.4308 45.4303 -3.57106e-006 4.2478e-007 -1.84169e-006 -23.287 86.8345 20.2199 2.33507e-006 -5.6766e-006 -3.00656 8.02894 -4.95148 0.697701 -66.9794 -0.659498 1.33404 -103.602 0.962943 -13.4136 1.45682e-006 5.58275e-007 1.66602e-006 -5.80177 18.954 2.23633 6.89473e-006 4.13905e-006 3 -8.02941 -4.95144 -0.697658 178.622 -5.62851 0.450524 180 7.01527e-015 178.838 178.706 10.9425 179.563 -5.9511e-008 -3.5271e-006 0.253183 -21.4888 71.7103 23.1672 8.13662 25.2345 -3.48522 -179.984 -5.16441 5.46027 4.54188e-006 -4.6773e-006 -1.40146 -6.02435 -10.9307 -0.407568 -8.91502e-007 -2.57141e-006 -0.166683 24.1015 71.2941 -22.9857 -8.13649 25.2327 3.48774 
49.574 94.158 14.8115 0.87304 -8.00404 3.33809 -0.60902 -1.41267 0.239529 -1.23606 1.18169 0.534413 -1.24332 2.82652 0.555396 3.69762 13.5982 -3.81207 15.6642 -8.78273 -0.00915353 27.5137 -13.5239 -9.98829 15.0761 54.3985 46.0216 -3.57106e-006 4.2478e-007 -1.84169e-006 -18.2446 86.4115 15.366 2.33507e-006 -5.6766e-006 -3.00656 8.02894 -4.95148 0.697701 -66.958 -0.673896 1.33924 -103.629 0.968212 -13.3901 1.45682e-006 5.58275e-007 1.66602e-006 -5.80917 18.9665 2.23859 6.89473e-006 4.13905e-006 3 -8.02941 -4.95144 -0.697658 178.629 -5.61793 0.442769 180 7.01527e-015 178.837 178.708 10.9313 179.563 -5.9511e-008 -3.5271e-006 0.253031 -21.4795 71.7024 23.1579 8.13662 25.2345 -3.48522 -179.98 -5.14278 5.46079 4.54188e-006 -4.6773e-006 -1.40163 -6.02184 -10.9406 -0.407489 -8.91502e-007 -2.57141e-006 -0.166706 24.1001 71.2953 -22.9873 -8.13649 25.2327 3.48774 
49.5721 94.1627 14.7998 0.867413 -7.99119 3.33676 -0.608431 -1.41292 0.240396 -1.23495 1.18178 0.535333 -1.24222 2.82661 0.556298 3.68623 13.5245 -3.80412 15.6549 -8.72965 -0.0157536 27.5365 -13.5288 -9.99244 15.0418 54.3617 46.597 -3.57106e-006 4.2478e-007 -1.84169e-006 -14.3662 85.9782 11.669 2.33507e-006 -5.6766e-006 -3.00656 8.02894 -4.95148 0.697701 -66.9372 -0.687478 1.34408 -103.655 0.972917 -13.3676 1.45682e-006 5.58275e-007 1.66602e-006 -5.81641 18.9788 2.24082 6.89473e-006 4.13905e-006 3 -8.02941 -4.95144 -0.697658 178.637 -5.60709 0.435108 180 7.01526e-015 178.837 178.711 10.9208 179.562 -5.9511e-008 -3.5271e-006 0.252879 -21.4707 71.695 23.149 8.13662 25.2345 -3.48522 -179.976 -5.12077 5.46229 4.54188e-006 -4.6773e-006 -1.40184 -6.01855 -10.9511 -0.407336 -8.91502e-007 -2.57141e-006 -0.166771 24.0995 71.2971 -22.9896 -8.13649 25.2327 3.48774 
49.5686 94.1605 14.7738 0.86201 -7.9785 3.3361 -0.607955 -1.41307 0.241168 -1.23395 1.18198 0.536193 -1.24124 2.82681 0.557141 3.67613 13.4524 -3.79659 15.644 -8.67837 -0.0224292 27.5593 -13.5342 -9.99705 15.0115 54.3204 47.1526 -3.57106e-006 4.2478e-007 -1.84169e-006 -11.3337 85.5447 8.80986 2.33507e-006 -5.6766e-006 -3.00656 8.02894 -4.95148 0.697701 -66.9173 -0.700068 1.34849 -103.679 0.977072 -13.3463 1.45682e-006 5.58275e-007 1.66602e-006 -5.82343 18.9907 2.24301 6.89473e-006 4.13905e-006 3 -8.02941 -4.95144 -0.697658 178.644 -5.59608 0.42763 180 7.01526e-015 178.837 178.714 10.9112 179.562 -5.9511e-008 -3.5271e-006 0.252725 -21.4625 71.688 23.1407 8.13662 25.2345 -3.48522 -179.973 -5.0985 5.46494 4.54188e-006 -4.6773e-006 -1.4021 -6.01433 -10.9625 -0.407093 -8.91502e-007 -2.57141e-006 -0.166891 24.0998 71.2997 -22.9928 -8.13649 25.2327 3.48774 
49.5662 94.156 14.7751 0.856844 -7.96613 3.33614 -0.607598 -1.41307 0.241826 -1.23307 1.18236 0.536987 -1.24037 2.82719 0.557921 3.66744 13.3822 -3.78956 15.6311 -8.62936 -0.0291599 27.582 -13.5401 -10.0021 14.9862 54.2751 47.6845 -3.57106e-006 4.2478e-007 -1.84169e-006 -8.92624 85.119 6.56678 2.33507e-006 -5.6766e-006 -3.00656 8.02894 -4.95148 0.697701 -66.8982 -0.711491 1.35239 -103.702 0.980692 -13.3263 1.45682e-006 5.58275e-007 1.66602e-006 -5.83012 19.002 2.24512 6.89473e-006 4.13905e-006 3 -8.02941 -4.95144 -0.697658 178.651 -5.58498 0.420424 180 7.01526e-015 178.837 178.716 10.9027 179.562 -5.9511e-008 -3.5271e-006 0.252567 -21.4549 71.6816 23.1331 8.13662 25.2345 -3.48522 -179.971 -5.07606 5.46893 4.54188e-006 -4.6773e-006 -1.40242 -6.00899 -10.9749 -0.406747 -8.91502e-007 -2.57141e-006 -0.167078 24.1013 71.3031 -22.9971 -8.13649 25.2327 3.48774 
49.5526 94.1582 14.757 0.851931 -7.95424 3.33694 -0.607368 -1.41287 0.242356 -1.23232 1.18299 0.537708 -1.23962 2.82782 0.55863 3.66032 13.3142 -3.78312 15.6163 -8.58312 -0.0359255 27.6047 -13.5463 -10.0077 14.9668 54.2261 48.189 -3.57106e-006 4.2478e-007 -1.84169e-006 -6.99084 84.7073 4.78576 2.33507e-006 -5.6766e-006 -3.00656 8.02894 -4.95148 0.697701 -66.8803 -0.721571 1.3557 -103.723 0.983792 -13.3078 1.45682e-006 5.58275e-007 1.66602e-006 -5.83641 19.0126 2.24715 6.89473e-006 4.13905e-006 3 -8.02941 -4.95144 -0.697658 178.658 -5.57389 0.41358 180 7.01526e-015 178.837 178.719 10.8953 179.561 -5.9511e-008 -3.5271e-006 0.252404 -21.4483 71.6759 23.1263 8.13662 25.2345 -3.48522 -179.97 -5.05356 5.47444 4.54188e-006 -4.6773e-006 -1.4028 -6.00237 -10.9883 -0.406283 -8.91502e-007 -2.57141e-006 -0.167344 24.1041 71.3075 -23.0025 -8.13649 25.2327 3.48774 
49.5527 94.1544 14.751 0.847285 -7.94299 3.33852 -0.607273 -1.41244 0.24274 -1.23168 1.18394 0.53835 -1.23899 2.82877 0.559262 3.65492 13.2491 -3.77732 15.5992 -8.54012 -0.0427057 27.6276 -13.553 -10.0137 14.9542 54.174 48.6621 -3.57106e-006 4.2478e-007 -1.84169e-006 -5.42033 84.3149 3.35872 2.33507e-006 -5.6766e-006 -3.00656 8.02894 -4.95148 0.697701 -66.8635 -0.730133 1.35834 -103.742 0.986386 -13.291 1.45682e-006 5.58275e-007 1.66602e-006 -5.84223 19.0225 2.24906 6.89473e-006 4.13905e-006 3 -8.02941 -4.95144 -0.697658 178.665 -5.56289 0.407186 180 7.01526e-015 178.837 178.721 10.8894 179.561 -5.9511e-008 -3.5271e-006 0.252233 -21.4426 71.6709 23.1205 8.13662 25.2345 -3.48522 -179.97 -5.03111 5.48164 4.54188e-006 -4.6773e-006 -1.40326 -5.9943 -11.0031 -0.405688 -8.91502e-007 -2.57141e-006 -0.1677 24.1085 71.313 -23.0094 -8.13649 25.2327 3.48774 
49.5616 94.1558 14.7748 0.842888 -7.93211 3.34104 -0.607366 -1.41178 0.242943 -1.23122 1.18516 0.538866 -1.23854 2.82999 0.559771 3.65201 13.1849 -3.77227 15.579 -8.49881 -0.0498311 27.6514 -13.5605 -10.0205 14.9491 54.119 49.1022 -3.57106e-006 4.2478e-007 -1.84169e-006 -4.14016 83.9482 2.2109 2.33507e-006 -5.6766e-006 -3.00656 8.02894 -4.95148 0.697701 -66.8473 -0.737745 1.36055 -103.759 0.988437 -13.2754 1.45682e-006 5.58275e-007 1.66602e-006 -5.84779 19.032 2.25096 6.89473e-006 4.13905e-006 3 -8.02941 -4.95144 -0.697658 178.671 -5.55136 0.401085 180 7.01526e-015 178.837 178.722 10.8853 179.561 -5.9511e-008 -3.5271e-006 0.25205 -21.4381 71.6669 23.1157 8.13662 25.2345 -3.48522 -179.971 -5.00799 5.49119 4.54188e-006 -4.6773e-006 -1.40383 -5.98419 -11.0198 -0.404891 -8.91502e-007 -2.57141e-006 -0.168183 24.1146 71.32 -23.018 -8.13649 25.2327 3.48774 
